<svg xmlns="http://www.w3.org/2000/svg" viewBox="0 0 747.8 112.61"><defs><style>.cls-1{font-size:69.44px;font-family:GoboldThinLight, Gobold Thin Light;letter-spacing:0.1em;}.cls-1,.cls-5{fill:#fff;}.cls-2{letter-spacing:0.05em;}.cls-3{letter-spacing:0.1em;}.cls-4{letter-spacing:0.08em;}</style></defs><title>StormWakerLogo_White</title><g id="Layer_2" data-name="Layer 2"><g id="Layer_2-2" data-name="Layer 2"><text class="cls-1" transform="translate(159.67 84.4)">Storm<tspan class="cls-2" x="211.94" y="0">W</tspan><tspan class="cls-3" x="273.06" y="0">alke</tspan><tspan class="cls-4" x="425.9" y="0">r</tspan><tspan x="464.65" y="0" xml:space="preserve"> Co.</tspan></text><path class="cls-5" d="M90.2,64.82l-10.62,3.7c25.63,8.07,50.35,14.67,53.7,11.33Z"/><path class="cls-5" d="M25.5,85.42h0L132.75,48c-5.89-5.89-78,19-104.68,28.52l-17.6,6L9.08,83l0,.08a15.45,15.45,0,1,0,21,9.08A15.11,15.11,0,0,0,25.5,85.42ZM75.76,62.85a1.51,1.51,0,1,1,0,2.13A1.5,1.5,0,0,1,75.76,62.85ZM18.55,106.23a9.59,9.59,0,0,1-6.41-18.08l.54-.18a9.59,9.59,0,0,1,5.87,18.26Z"/><path class="cls-5" d="M9.63,44.78l0,.08,1.39.48,17.71,6,1.59.57.47.16c8,2.83,19.21,6.74,31.33,10.77,3.33-1.11,6.72-2.21,10.11-3.3l1.51-.48L26,42.44a15.45,15.45,0,1,0-16.4,2.34ZM6.91,27.62a9.59,9.59,0,1,1,6.3,12.27l-.55-.19A9.57,9.57,0,0,1,6.91,27.62Z"/><polygon class="cls-5" points="69.17 72.44 75.92 70.03 81.73 72.05 86.86 97.4 69.17 72.44"/><polygon class="cls-5" points="88.11 48.04 56.65 0 69.56 37.17 52.43 37.17 63.24 52.4 77.37 57.33 75.48 48.04 88.11 48.04"/></g></g></svg>